<svg xmlns="http://www.w3.org/2000/svg" viewBox="0 0 600 600"><defs>
<style>.cls-1{fill:#a7c0dd;}.cls-2{fill:#f2f2f2;}.cls-3{fill:#333;}.cls-4{fill:#ccc;}.cls-5{fill:#ddc4a7;}.none{display:none;}</style>
</defs><title>Asset 3</title><g id="Layer_2" data-name="Layer 2"><g id="Bubble_tea" data-name="Bubble tea"><g id="circle"><circle class="cls-1 none" cx="300" cy="300" r="300"/><path class="cls-2" d="M363.91,500H236.17a4,4,0,0,1-3.86-3.9l-15.91-300a4,4,0,0,1,3.86-4.36H379.74a4,4,0,0,1,3.86,4.36l-15.83,300A4,4,0,0,1,363.91,500Z"/><rect class="cls-3" x="316.14" y="100.02" width="25.92" height="109.09"/><rect class="cls-4" x="203.44" y="189.4" width="193.12" height="6.9" rx="2.3"/><path class="cls-5" d="M220.12,209.11,234.64,493a3.93,3.93,0,0,0,3.73,3.91H361.71a3.92,3.92,0,0,0,3.72-3.91l14.45-283.92Z"/><circle class="cls-3" cx="261.58" cy="478.7" r="9.86"/><circle class="cls-3" cx="251.72" cy="413.48" r="9.86"/><circle class="cls-3" cx="296.43" cy="479.69" r="9.86"/><circle class="cls-3" cx="285.91" cy="457.84" r="9.86"/><circle class="cls-3" cx="316.14" cy="447.98" r="9.86"/><circle class="cls-3" cx="342.06" cy="479.69" r="9.86"/><circle class="cls-3" cx="346.16" cy="451.51" r="9.86"/><circle class="cls-3" cx="251.72" cy="447.98" r="9.86"/><circle class="cls-3" cx="316.14" cy="413.48" r="9.86"/><circle class="cls-3" cx="290.15" cy="428.27" r="9.86"/><circle class="cls-3" cx="348.28" cy="418.41" r="9.86"/></g></g></g></svg>