<svg xmlns="http://www.w3.org/2000/svg" viewBox="0 0 600 600"><defs><style>.cls-1{fill:#f9cab8;}.cls-2{fill:#b3b3b3;}.cls-3{fill:#ed1c24;}.cls-4{fill:#fff;fill-rule:evenodd;}</style></defs><title>Asset 20</title><g id="Layer_2" data-name="Layer 2"><g id="cola"><rect id="bg" class="cls-1" width="600" height="600"/><g id="icon"><rect class="cls-2" x="219.54" y="474.46" width="162.82" height="24.4" rx="9.48"/><path class="cls-3" d="M383.34,485.36H218.55a7.17,7.17,0,0,1-7.16-7.16V120.27a7.57,7.57,0,0,1,1.19-4l7-10.85H382.36l7,10.86a7.46,7.46,0,0,1,1.18,4V478.2A7.17,7.17,0,0,1,383.34,485.36Z"/><rect class="cls-2" x="211.39" y="101.13" width="179.1" height="8.47" rx="2.22"/><path class="cls-4" d="M359.41,324.22c-7.26,11.27-8.54,26.57-1.69,51.25,6.18,26.3,10.14,35.08,2.19,46.59-3.91,4.43-10.2,6-19.27,4.83-14.77-2.75-29-10.17-44.76-23.36-8.21-7.36-15.25-14.19-18.07-23.21-1.78-6.91,3.66-6.27,4.43-5.43a6.69,6.69,0,0,0,.89,3.51c.72.93,3.05,3.48,6.18,3.62,4.8.2,3.8-4.77,1.16-6.91-3-2.3-8.64-5.71-13.94-3a7.88,7.88,0,0,0-3.63,5.48c-.47,8.25,3.47,15.94,7.82,23,10.78,15.52,25.72,27.94,42.07,35,9.87,4.05,24,7.71,35.51,2.22,8-4.25,12.23-13.07,11.34-23.59-.78-7.38-3.16-16.3-4.6-22.3s-12-36.72,6.37-46.82a13.62,13.62,0,0,1-6.65-11.74c-.64-6.9,2-16.84,7.32-24.09-3.63,2.41-9,9.26-12.67,15Z"/><path class="cls-4" d="M297.74,372.34c-3.77,5.74,3.43,17.29,15.8,26.54,11.08,8.46,24,12.11,29.93,8.13,7-5.91-3.18-16.88-8.65-21.55l-.63-.6a67.8,67.8,0,0,0-11.45-8L319,374.57c-.25-1.35-.64-3-1.16-4.8.08,0,11.8,7,17.62,6.29,1.78-.22,8.26-.06,10.23-6.39,1.42-8.44-5.13-15.18-11-21.12L333.19,347l1.36.33c8.59,2.48,10.39-.85,11.06-2.94,1.83-6.3-7.32-13.82-7.32-13.84,2.88.19,5.27.76,7.18-2.27,1-2.87-.5-5.77-2-8-5.6-7.94-14.41-14.34-21.9-19.51v3.3c.06,0,11.7,8.13,14.25,13.39,0,0,.47,1,.08,1.52-.58.68-1.88.41-2.74,0l-35.31-20.3v9.57s1.77,1,1.88,1.13c-.06.07-.3.22-.44.33-8.21,5.93,4.43,19.36,19.07,29.47,5.62,3.89,12,8.85,16.54,14,0,0,7,7.61,2,10.87-2.1,1.19-5.18.82-7.2.15-10.79-3.79-20.57-10.31-26.48-17.74-1.63-2.1-2.1-4.38-1.41-5.51a2.4,2.4,0,0,1,3.3-.57,5.29,5.29,0,0,0,1.64,4.24c2.32,2.22,4.57,3,6.68,2.29,4.87-3.43-4.77-10.26-10.65-9.93a6.27,6.27,0,0,0-5.07,2.92c-1.5,2.5-1.11,6.31.08,8.78,1.25,3.3,5.6,8.53,9,11.59,4.24,3.84,9,10.43,8.43,12.49-1.8-.67-13.19-6.24-17.46-.38Zm16.85-46.16c-2.58-1.86-9.48-7.28-10.64-8.6-3.91-4.45-2.19-6.22-1-6.38,7.42,4.15,15.93,9,23.58,13.65l2.19,1.44c3.11,2,5.77,4.08,7.63,7.42a2.18,2.18,0,0,1-.2,1.78,1.86,1.86,0,0,1-1.83.8c-2.38-.2-9.67-2.62-19.76-10.11Zm4.46,52.08s.25.08.33.12,6.8,4.18,6.8,4.18c3.35,2.51,7.56,5.65,9.59,9.57.38,1.16.63,2.77-.39,3.59-2.08,1.73-5,.84-7.29.11l-.83-.26c-5.66-2.08-10.65-5.39-15.28-8.6a.55.55,0,0,1-.05-.17s0,0,.08,0c3.88-2,5.68-5.81,6.52-8.64,0,0,0,0,.08,0a1.46,1.46,0,0,1,.44.16Zm-8-3.94c.06,0,4.27,1.85,4.27,1.85.22.27.11.69,0,1.17l-.14.82a7.38,7.38,0,0,1-4.57,5.14c-4,.83-7.13-2.58-8.26-4.08s-1.53-3.68-.5-5a5.19,5.19,0,0,1,3.49-1.11,18.68,18.68,0,0,1,5.71,1.19Z"/><path class="cls-4" d="M323.9,253.29a5.63,5.63,0,0,0-3.13,5.45c.69,7.58,6.93,15,15.88,18.9a46,46,0,0,0,14.44,3.89,40.06,40.06,0,0,1-9.61-12.63,26.2,26.2,0,0,1-11-4.53c-2.14-1.43-5.57-4.3-4.66-7.52.94-2.82,8.73-1.83,16.27,1.91a52.08,52.08,0,0,1,14.91,11.29c3.22,3.79,7.1,9.39,4.11,14.29-1.83,3.09-5.66,4.67-10.59,4.33-14-1.47-25.92-7.84-39.5-17-12.61-9.4-25.56-19.77-32.46-33.73-1.44-2.85-1.77-5.49-.89-7.76,0,0,7.21,13.1,20.54,19.35,3.39,1.59,8,3.8,12,1.57,2.1-1.16,2.27-3.23,2.16-4.89-1.78-7.66-8.93-12.6-15.47-16.65-5-2.34-9.89-4.42-15.38-4.42-.67,0-1.56,0-2.22.09-1.94-3.66,1.5-11.16,1.5-11.16,1.94-5.86,11.5-18.35,13.33-22.56-2.38-2.05-6-5.43-7.79-7.33L284.71,187c-2.69,4.41-5.24,9.06-7.76,13.65-5.68,10.4-3.69,18.88-2.14,23.19.61,1.69,1.14,3.24,1.14,3.24-3.49,3.2-3.16,8.45-2.22,12.31,4,13.91,13.72,26.82,30.6,40.66,13.23,10.18,24.65,16.49,35.93,19.85,7.59,2.6,18.76,3.39,25.39-2.94,5.62-5.39,4.4-12.52,2.38-17.56-5.38-10.92-17-20.73-30.3-25.62-4-1.18-9.56-2.49-13.83-.46Zm-41.77-25.11c16.58,1.45,26.31,14.33,27.08,17.52.39,1.93-.47,5.23-7.43,2.29-9.37-4.34-17.32-11.73-21.39-19.68a4.38,4.38,0,0,1,1.74-.13Z"/><path class="cls-4" d="M284.24,151.75c3.93,6.93,6.48,14.12,5.6,22.81,2.71,2.42,5.51,4.76,8.4,6.93,3.1-12.21-3.8-25.15-10.37-32.37a50.9,50.9,0,0,0-15-11.55,60.71,60.71,0,0,1,11.34,14.18Z"/><polygon class="cls-4" points="306.54 286.36 306.54 293.43 313.28 297.41 313.28 290.35 306.54 286.36 306.54 286.36"/><path class="cls-4" d="M360.27,174.6c.67,1,.11,2.35-1.41,1.84C355,175.16,347,170.07,347,170.07L321.8,155.91v9.7c.83.46,2.55,1.45,2.55,1.45a13.25,13.25,0,0,0-2.75,2.34c-1.49,2.37-.77,5.85.58,8.25,6.1,10.43,18.16,18,27.56,24,0,0,10.45,6.32,11.22,9.83.22,2.74-3.46,2.45-4.32,2.34-6.21-1.06-12.11-3.52-17.46-6a134.12,134.12,0,0,0-13.09-16c-10.84-11.34-23.11-20.9-25.86-22.3a21.54,21.54,0,0,1,.36,3.3c12.17,8.73,29.85,26.58,32.49,32-5.77-2.4-33.29-17.89-46.46-31.07l-2-2.08c-3.14-3.2-6.35-6.53-6.88-9.12,0-.27,0-.62.64-.93,2.44-.11,4.24.8,6.29,1.84l3,1.46a32.1,32.1,0,0,0-.83-3.43c-3-1.57-6.29-3.32-10.25-2.68a3,3,0,0,0-2.47,2.35c-.75,3.93,2.16,8.22,4.52,11.67l.08.13c13.89,17.73,33.9,32.7,61.23,45.78.72,1,1.58,4.62,1.17,5.24A44.41,44.41,0,0,0,331,220.27a25.37,25.37,0,0,0-3.35-.28c-2.39,0-4.63.58-6.19,2.71-1.24,2.51-.66,5.61.28,7.7,3.88,9.35,13.47,16.34,21.37,21.39,5,2.71,10.4,5.41,16.55,6.16,4.82.53,7.93-.54,9.48-3.28s-.06-6.37-.78-7.77c-5-9.47-15-16.1-24.14-21.31a31.31,31.31,0,0,0-.66-5.22.18.18,0,0,1,0-.09l3.74,1.24c9.71,3.31,16.3,4.84,20.21,1.71,5.52-4.46-.19-11.85-7.73-17.87,9,1.29,10.45-3.39,9.76-7-1.11-4.1-5.49-8.67-7.74-10.79,2.64.68,7.35.5,7.82-3.23.47-2.56-.83-4.47-2-6.69-4.33-7.94-18.83-17.45-22.82-19.92V161c5.19,3.51,12.17,8,15.47,13.59Zm-1,71.29a4.58,4.58,0,0,1-2.5.69c-5.43.09-15.1-5.75-20.51-9.88h0c4-1.73,6.26-5.65,7.29-8,6.54,2.93,20.6,13,15.72,17.21ZM340.62,227c.19.28-1.47,5.22-6,6.17-3.94.81-7-1.9-8.57-4.52a4.54,4.54,0,0,1-.75-4.07c.78-1.15,2.16-1.46,3.66-1.46a23.77,23.77,0,0,1,2.72.22l.19,0a36.76,36.76,0,0,1,8.79,3.63Zm16.85-39.61.83.93c1.19,1.33,2.47,2.71,1.83,4.36a1.64,1.64,0,0,1-1.25.86c-3.41.07-6.57-1.47-9.64-2.95l-.81-.38c-7.15-4.29-15.57-9.27-21.42-16.58-.89-1.23-1.64-2.57-1.06-4a2.12,2.12,0,0,1,1.36-.7,2.42,2.42,0,0,1,.75.23c3.3,2.05,6.76,4,10.09,5.88,6.57,3.7,13.36,7.53,19.32,12.33Z"/></g></g></g></svg>