<svg xmlns="http://www.w3.org/2000/svg" viewBox="0 0 600 600"><defs><style>.cls-1{fill:#bd9fb3;}.cls-2{fill:#f2f2f2;}.cls-3{fill:#ddc4a7;}.cls-4{fill:#333;}.cls-5{fill:none;stroke:#333;stroke-miterlimit:10;stroke-width:0.83px;}.cls-6{fill:#fff;}</style></defs><title>Asset 16</title><g id="Layer_2" data-name="Layer 2"><g id="mccafe"><rect id="bg" class="cls-1" width="600" height="600"/><g id="icon"><rect class="cls-2" x="176.07" y="100.96" width="247.86" height="8.86" rx="2.95"/><path class="cls-2" d="M382,473.53H218.08a5,5,0,0,1-5-4.68l-20.42-359.7a5,5,0,0,1,4.95-5.24H402.34a5,5,0,0,1,5,5.24L387,468.85A5,5,0,0,1,382,473.53Z"/><rect class="cls-3" x="218.35" y="465.94" width="163.3" height="33.1" rx="7.43"/><path class="cls-3" d="M193.82,128.74l19.31,340.11a5,5,0,0,0,5,4.68H382a5,5,0,0,0,5-4.68l19.2-340.11Z"/><circle class="cls-4" cx="300" cy="256.73" r="54.17"/><circle class="cls-5" cx="299.69" cy="257.05" r="60.24"/><path class="cls-6" d="M328.1,259.13c-23.28,1.09-49.88,8.85-68.23,19.23-.7.39-.86.68-.77,1a.55.55,0,0,0,.79.31c-1.26.64-2.05,1.51-1.7,2.23.23.47.92.7,2.1,0,15.24-9.4,40.93-18.87,67.74-21.72a118.39,118.39,0,0,1,12.33-.4,73,73,0,0,0-12.26-.63Z"/><path class="cls-6" d="M338,256.18h.14c.17,0,.31-.06.31-.19s-.09-.2-.28-.2l-.17,0v.37Zm0,.73h-.3v-1.3a3,3,0,0,1,.5,0,.74.74,0,0,1,.45.1.33.33,0,0,1,.13.28.34.34,0,0,1-.27.31v0c.13,0,.19.14.23.31a1,1,0,0,0,.1.32h-.32a1.37,1.37,0,0,1-.11-.32c0-.13-.1-.19-.26-.19H338v.51Zm.2-1.71a1,1,0,0,0,0,2.07,1,1,0,0,0,1-1,1,1,0,0,0-1-1Zm0-.27a1.31,1.31,0,1,1,0,2.62,1.31,1.31,0,1,1,0-2.62Z"/><path class="cls-6" d="M319.37,248.64a14.58,14.58,0,0,1-3.07,3.61c-.91.74-2.37,1.75-3.39,1.51a1,1,0,0,1-.58-.78c-.19-1.71,4.34-6.64,6.91-7.79.49-.22,1.45-.37,1.41.55a8.44,8.44,0,0,1-1.27,2.88v0Zm14.05-5c.37-.12.51-.19.52-.41s-.2-.56-1.07-.59a11.14,11.14,0,0,0-3.82.86c1.67-4.09,4.76-10.13,8.44-10.88.15,0,.26-.07.33,0s.11.21.13.36c0,.31.14.77.69.72a.93.93,0,0,0,.9-.73c.21-.67.59-1.43-.2-1.75-.39-.15-1.34-.34-3.46.73-1.21.61-4.45,2.41-8,9-1,1.75-1.42,2.72-2.23,4.39a9.58,9.58,0,0,1-1.59,2.28,12.56,12.56,0,0,0-1.24,1.55c-.47.7-1.64,1.89-1.92,1.77,0,0-.12-.18,0-.73a26.77,26.77,0,0,1,1.11-2.45,8.07,8.07,0,0,0,1.17-3.44,1.21,1.21,0,0,0-.45-.91c-.59-.33-1.75,0-2.63.26a19.54,19.54,0,0,0-9.72,7.74,18.35,18.35,0,0,1-4.15,3.65c-2.75,1.5-6.11,2.63-8.06,1.81a2.66,2.66,0,0,1-1.44-1.55c-.79-3.65,8.07-15.37,13.48-18.44,1-.59,3.11-1.13,3.22.86,0,.17,0,.29,0,.54,0,.83.2,1.57,1.85.83a6.82,6.82,0,0,0,.16-2.43,2.26,2.26,0,0,0-1-1.6c-1.27-.59-2.08-.36-3.68.36a37.75,37.75,0,0,0-16.77,16.24s-3.72,7.27,1.59,9c.73.24,5,1.38,13.93-5.76A2.51,2.51,0,0,0,311,256.9a5,5,0,0,0,3.5-.81c2-1.2,3-2.94,4-4-.16,1.6.42,2.07.88,2.23,1.06.35,2.66-.81,4.35-3.27A103.05,103.05,0,0,0,321.92,264c0,.45.05.61.24.74.65.43,2.33-1.61,2.94-2.64a.81.81,0,0,0,.11-.26c.59-5.36,1.31-11,2.55-14.85a13.23,13.23,0,0,1,5.66-3.3Z"/><path class="cls-6" d="M279.23,254.75a43.18,43.18,0,0,1,3.18-7.89,6.73,6.73,0,0,0,1-2.76q0-.67-.39-.87c-.38-.18-1,0-1.83.68a21.46,21.46,0,0,0-3.57,3.5,59,59,0,0,0-7.73,12.31c0-2.6.21-6.89.24-7.18a10.84,10.84,0,0,0,.09-2.57,1.27,1.27,0,0,0-.12-.4.72.72,0,0,0-.51-.4c-.29,0-.61.09-1,.47a20.42,20.42,0,0,0-2.5,3c-5,6.79-7.57,14.87-7.3,21.93a.66.66,0,0,0,.61.57,5.39,5.39,0,0,0,3-1.93c.25-.48.25-.44.26-1.31.05-4.65.7-13,5-18.89a8.74,8.74,0,0,1,.79-1c-.28,1.53-.65,3.95-.86,6.26a40.67,40.67,0,0,0,.13,8,3.11,3.11,0,0,0,.48,1.41,1.57,1.57,0,0,0,1.79.18c.92-.31,1.52-.59,1.69-1.07.25-.74.48-2.51.72-3.42,2.64-10,6.67-15.49,8.62-17.21-.12.33-.39.91-.69,1.56-1.82,3.88-6.25,13.34-4.71,22.3a18.86,18.86,0,0,0,1.2,4.15c.35.85,1.18,1.75,1.68,1.59.29-.09.75-.77.84-.93s.07-.14,0-.21c-.82-2.69-2.14-13.1-.12-19.86Z"/><path class="cls-6" d="M288.71,249.28a20.65,20.65,0,0,0-7.66,7.31c-1.64,2.78-2,4.83-1,6.13a2.78,2.78,0,0,0,2.34.83c4.1-.76,6.64-5.33,7.88-7.11.27-.38.05-.61,0-.67-.27-.16-.76,0-1.09.32-.18.13-.35.33-.6.56-.87.8-3.83,4.13-5.38,3.4a1.28,1.28,0,0,1-.66-.72c-.37-1.68,3.62-7.06,6.06-8.47a1.75,1.75,0,0,1,.77-.25c.43,0,.77.24.67.93a.85.85,0,0,0,1.06-.16,1.65,1.65,0,0,0,.28-1.5c-.34-1.35-2-.93-2.63-.6Z"/><path class="cls-6" d="M338.7,245.35a6.8,6.8,0,0,1-5.85,3.48,15.49,15.49,0,0,1,4.49-4.18c1.07-.55,1.66.06,1.36.7Zm-1-2.1a14.52,14.52,0,0,0-7.31,5.48c-.68,1-2.19,3.27-1.86,5.3a2.17,2.17,0,0,0,1.12,1.55,3.1,3.1,0,0,0,2.09.08c1.57-.3,3-1.28,5-3.71a2.48,2.48,0,0,0,.74-1.59c0-.32-.45-.32-.54-.22-2.15,2.36-3.93,3.21-4.93,3.05a1,1,0,0,1-.64-.74,4.69,4.69,0,0,1,1-2.6,11.24,11.24,0,0,0,4.9-1.17,5.7,5.7,0,0,0,3.12-3.75,1.61,1.61,0,0,0-.33-1.57c-.46-.42-1.16-.48-2.31-.11Z"/><path class="cls-6" d="M340.77,239.41c-.9-.34-2.52.32-3.79,1.37-.59.49-1.45,1.4-1.26,2,0,.12.15.22.39.17a4.22,4.22,0,0,0,.94-.69,7.47,7.47,0,0,1,3.37-1.23,1,1,0,0,0,.84-.89.7.7,0,0,0-.49-.73Z"/></g></g></g></svg>