<svg xmlns="http://www.w3.org/2000/svg" viewBox="0 0 600 600"><defs><style>.cls-1{fill:#9ca2d1;}.cls-2{fill:#ddc4a7;}.cls-3{fill:#f4ebe2;}.cls-4{fill:#a38161;}.cls-5{fill:#fff;}</style></defs><title>Asset 14</title><g id="Layer_2" data-name="Layer 2"><g id="milk"><rect id="bg" class="cls-1" width="600" height="600"/><g id="icon"><rect class="cls-2" x="176.24" y="192.01" width="249.4" height="307.6"/><rect class="cls-3" x="209.25" y="239.56" width="183.39" height="60.07"/><rect class="cls-3" x="209.25" y="405.65" width="183.39" height="60.07"/><rect class="cls-2" x="209.25" y="99.78" width="183.39" height="33.75"/><polygon class="cls-4" points="425.65 191.9 176.25 191.9 209.25 133.53 392.64 133.53 425.65 191.9"/><path class="cls-5" d="M242.41,116.57a7.09,7.09,0,0,1,.41-2.82,3.57,3.57,0,0,1,1.11-1.4,2.91,2.91,0,0,1,1.74-.49,2.83,2.83,0,0,1,1.4.29,3.22,3.22,0,0,1,1,.84,3.34,3.34,0,0,1,.67,1.36,9,9,0,0,1,.21,2.16c0,1.84-.3,3.11-.91,3.81a3,3,0,0,1-2.37,1,2.91,2.91,0,0,1-2.37-1.08A6,6,0,0,1,242.41,116.57Zm2.08-.55v.58a12.45,12.45,0,0,0,.09,1.9,1.3,1.3,0,0,0,.41.72,1.13,1.13,0,0,0,.74.26,1,1,0,0,0,.64-.26,1.39,1.39,0,0,0,.41-.78,9.47,9.47,0,0,0,.12-1.85,9.73,9.73,0,0,0-.1-1.71,1.55,1.55,0,0,0-.4-.82,1,1,0,0,0-.73-.32.92.92,0,0,0-.9.55A3.93,3.93,0,0,0,244.49,116Z"/><path class="cls-5" d="M250.43,112.06H253c2,0,3,1,3,2.85a2.53,2.53,0,0,1-.78,2,3.16,3.16,0,0,1-2.19.7h-.58v3.59h-2Zm2,4.09h.4a1,1,0,0,0,.81-.33,1.44,1.44,0,0,0,.29-.95q0-1.35-1.05-1.35h-.45Z"/><path class="cls-5" d="M261.67,121.18h-4.55v-9.12h4.27v1.76h-2.31v1.85h2v1.7h-2v2h2.59Z"/><path class="cls-5" d="M269.43,121.18h-2.09L265,115.42h0v5.76h-1.91V112h2.15l2.29,5.67h0V112h1.87Z"/><path class="cls-5" d="M274.42,112.06h2v3.48h1.85v-3.48h2v9.12h-2v-3.86h-1.84v3.86h-2Z"/><path class="cls-5" d="M286.47,121.18h-4.55v-9.12h4.27v1.76h-2.31v1.85h2v1.7h-2v2h2.59Z"/><path class="cls-5" d="M293.53,121.18h-2l-1.58-4.51h0v4.51h-2v-9.12h2.57a4.16,4.16,0,0,1,1.53.3,2,2,0,0,1,1.09,1,3,3,0,0,1,.32,1.35,2.45,2.45,0,0,1-.36,1.39,3.1,3.1,0,0,1-1.17,1Zm-3.62-5c.64,0,1-.12,1.21-.37a1.67,1.67,0,0,0,.26-1c0-.87-.36-1.3-1.07-1.3h-.4Z"/><path class="cls-5" d="M299.42,121.18h-4.55v-9.12h4.26v1.76h-2.3v1.85h2v1.7h-2v2h2.59Z"/><polygon class="cls-4" points="219.17 116.65 229.07 122.37 229.07 110.94 219.17 116.65"/><path class="cls-5" d="M279.78,377.21H269.34l-2.47-41.48h-.17L259,377.21H251.2l-7.37-41.73h-.17l-2.8,41.73H230.42l5.23-50.7h13.8L255,359.92h.17l6.06-33.41h13.62Z"/><path class="cls-5" d="M287.77,326.51h11v50.7h-11Z"/><path class="cls-5" d="M333.07,377.21h-23.7v-50.7h10.88v40.72h12.82Z"/><path class="cls-5" d="M372.82,377.21H361.21L351.06,351.6h-.17v25.61H339.81v-50.7h11.08v23.18h.17l9.71-23.18H372l-10.72,24.13Z"/></g></g></g></svg>