<svg xmlns="http://www.w3.org/2000/svg" xmlns:xlink="http://www.w3.org/1999/xlink" viewBox="0 0 600 600"><defs><style>.cls-1{fill:#89b6fd;}.cls-2{fill:#fbb03b;}.cls-3{fill:#1a1a1a;}.cls-4{fill:#cce9da;}.cls-5{fill:#ff880d;}.cls-6{fill:url(#linear-gradient);}.cls-7{fill:url(#linear-gradient-2);}.cls-8{fill:#231f20;}.cls-9{fill:#fff;}.cls-10{font-size:21.34px;font-family:TwCenMT-Condensed, Tw Cen MT Condensed;}</style><linearGradient id="linear-gradient" x1="611.64" y1="67.23" x2="583.84" y2="67.13" gradientTransform="matrix(1, 0, 0, -1, -261.57, 279.16)" gradientUnits="userSpaceOnUse"><stop offset="0" stop-color="#bed73a"/><stop offset="1" stop-color="#77a834"/></linearGradient><linearGradient id="linear-gradient-2" x1="511.69" y1="67.18" x2="589.08" y2="67.18" gradientTransform="matrix(1, 0, 0, -1, -261.57, 279.16)" gradientUnits="userSpaceOnUse"><stop offset="0" stop-color="#bfd741"/><stop offset="1" stop-color="#4d7621"/></linearGradient></defs><title>Asset 21</title><g id="Layer_2" data-name="Layer 2"><g id="orange"><rect id="bg" class="cls-1" width="600" height="600"/><g id="icon"><polygon class="cls-2" points="326.59 150.04 274.3 150.04 269.43 135.42 331.46 135.42 326.59 150.04"/><path class="cls-2" d="M324.59,150H276.3a3.91,3.91,0,0,0-3.24,1.9l-37.28,55.6c-2.16,3.3.68,8,4.15,8H361c3.47,0,6.24-4.88,4.08-8.17l-37.21-55.47A3.91,3.91,0,0,0,324.59,150Z"/><path class="cls-3" d="M273.83,101.5h53.23a7.32,7.32,0,0,1,7.32,7.32V139.1a0,0,0,0,1,0,0H266.52a0,0,0,0,1,0,0V108.81A7.32,7.32,0,0,1,273.83,101.5Z"/><rect class="cls-3" x="266.52" y="142.82" width="67.86" height="2.55"/><path class="cls-4" d="M336.08,501.33H264.81c-18,0-35-15.23-33.47-33.78L246.05,319.6a9.65,9.65,0,0,0-.05-2l-11.67-97.72c-1.59-13.28,8.44-25,21.39-25h89.45c12.95,0,23,11.72,21.39,25l-11.67,97.72a9.65,9.65,0,0,0-.05,2L369.55,468C371.05,486.57,354.1,501.33,336.08,501.33Z"/><path class="cls-2" d="M241.14,276.29H359.75l6.81-57c1.59-13.28-8.44-25-21.39-25H255.72c-12.95,0-23,11.72-21.39,25Z"/><polygon class="cls-5" points="355.06 315.51 360.87 266.95 240.03 266.95 245.83 315.51 355.06 315.51"/><path class="cls-2" d="M354.84,319a10.39,10.39,0,0,1,0-2l.18-1.47H245.83L246,317a9.65,9.65,0,0,1,.05,2l-14.71,148c-1.5,18.55,15.46,33.78,33.47,33.78h71.27c18,0,35-14.76,33.47-33.31Z"/><g id="g3961"><path id="path3904" class="cls-6" d="M348.28,206.47a60.7,60.7,0,0,0-25.79,5.64,37.92,37.92,0,0,1,5.37,3,42.09,42.09,0,0,0-5.37,2.4l.06,0a101.43,101.43,0,0,1,25.73-3.69h2.19V208a1.52,1.52,0,0,0-1.52-1.53Z"/><path id="rect4306" class="cls-7" d="M296.51,216.33c-15.42,0-46.09-2-46.09-2V208a1.53,1.53,0,0,1,1.54-1.53H296.7c19.12,0,31.16,8.65,31.16,8.65a41.49,41.49,0,0,0-5.42,2.42s-12.51-1.2-25.93-1.2Z"/><path id="path3219" class="cls-8" d="M350.43,263.8V211.31h-.69c-17.16-.05-26.61,6.14-27.15,6.14h-.23A62.6,62.6,0,0,0,295,211.31H250.42V263.8a1.38,1.38,0,0,0,1.39,1.38h97.25a1.37,1.37,0,0,0,1.37-1.38"/><path id="path3265" class="cls-9" d="M293,228.75v7.95h5.56v-.32a1,1,0,0,0-.73-.89l-.81-.21v-5.19a18.75,18.75,0,0,0-.11-2V228l0,0a2.36,2.36,0,0,1,1.52-.41,2,2,0,0,1,2,2.33v4.17c0,2.3,1.36,2.65,1.71,2.65h3.46v-1.22c-1.24-.06-1.24-1-1.24-2.28v-3.44c0-2.54-1.53-3.93-4.34-3.93a8,8,0,0,0-3.57,1l-.11.1-.08-.13a3.86,3.86,0,0,0-2.59-1,8,8,0,0,0-2.75.52v1.1c1.34,0,2.07.48,2.07,1.3m9.41-.44a1.28,1.28,0,0,1,.8.61,2.21,2.21,0,0,1,.25,1v4.27a1.25,1.25,0,0,0,.16.65.45.45,0,0,0,.15.18v.82a1.28,1.28,0,0,1-.78-.62,2,2,0,0,1-.27-1V230a1.33,1.33,0,0,0-.16-.65.9.9,0,0,0-.15-.18v-.81Zm-7,0h.74v6.75h-.74Z"/><path id="path3267" class="cls-9" d="M317.52,237.09a7.91,7.91,0,0,0,2.75-.52v-1.09c-1.33,0-2.07-.5-2.07-1.31v-7.94h-5.54v.32a1,1,0,0,0,.72.9l.82.19v5.17a16.53,16.53,0,0,0,.1,2v.07l-.05,0a2.27,2.27,0,0,1-1.51.43c-.9,0-2-.63-2-2.35v-4.17c0-2.3-1.36-2.63-1.72-2.63H305.6v1.22c1.23.06,1.23,1.05,1.23,2.28v3.43c0,2.53,1.54,3.93,4.34,3.93a8.07,8.07,0,0,0,3.58-1l.12-.09.07.12a3.81,3.81,0,0,0,2.58,1m-1-8.79h.75v5.92a1.25,1.25,0,0,0,.15.65.55.55,0,0,0,.15.18v.82a1.31,1.31,0,0,1-.78-.62,2,2,0,0,1-.27-1V228.3Zm-6.37,7.57a1.32,1.32,0,0,1-.8-.62,2.11,2.11,0,0,1-.27-1V230a1.33,1.33,0,0,0-.16-.65,1.43,1.43,0,0,0-.15-.18v-.81a1.26,1.26,0,0,1,.8.61,2,2,0,0,1,.27,1v4.27a1.35,1.35,0,0,0,.16.65.71.71,0,0,0,.15.18v.82Z"/><path id="path3269" class="cls-9" d="M283.12,251.68,283,252l-.12-.29-4.65-11.92h-7v.33a1,1,0,0,0,.74.89l1.37.35v14.19l-1.37.36a1,1,0,0,0-.74.88v.33h7.07v-.33a1,1,0,0,0-.72-.88l-1.39-.36v-9.44l.26,0,3.8,9.9c.4,1.07,2.38,1.34,2.83,1.38L287.89,246l.26.05v9.44l-1.36.36a1,1,0,0,0-.74.88v.33h8.75v-.33a1,1,0,0,0-.73-.88l-1.37-.36V241.33l1.37-.35a1,1,0,0,0,.73-.89v-.33h-6.45l-5.23,11.92m-1.18,2.09-4.89-12.47h.81l4.55,11.6-.47.87ZM291,241.3h.76v14.14H291Z"/><path id="path3271" class="cls-9" d="M272.15,231.28l-.13.29-.11-.29-4.66-11.91h-7v.32a1,1,0,0,0,.74.89l1.37.35v14.2l-1.37.36a1,1,0,0,0-.74.89v.32h7.07v-.32a1,1,0,0,0-.74-.89l-1.36-.36v-9.44l.26-.05,3.79,9.91c.4,1.07,2.38,1.33,2.85,1.37l4.77-11.28.25.05v9.44l-1.37.36a1,1,0,0,0-.72.89v.32h8.75v-.32a1,1,0,0,0-.74-.89l-1.37-.36v-14.2l1.37-.35a1,1,0,0,0,.74-.89v-.32h-6.46l-5.22,11.91m-1.19,2.1-4.89-12.47h.8l4.54,11.59-.45.88Zm9.11-12.47h.74v14.14h-.74V220.91Z"/><path id="path3273" class="cls-9" d="M283.6,226.23v.32a1,1,0,0,0,.74.9l.8.2s0,5.37,0,5.57c0,3,.72,3.76,3.34,3.76a4.31,4.31,0,0,0,2.46-.55v-1.07c-1.16-.09-1.77-.54-1.77-1.31v-7.82H283.6m5,9.64a1.34,1.34,0,0,1-.81-.62,2.1,2.1,0,0,1-.26-1V228.3h.76v5.92a1.36,1.36,0,0,0,.15.65.73.73,0,0,0,.16.18v.82Zm-1.68-11.34a1.82,1.82,0,0,0,2-1.62,1.7,1.7,0,0,0-1.78-1.65c-.83,0-2,.51-2,1.65A1.69,1.69,0,0,0,286.88,224.53Zm.48-1.09a1,1,0,0,0,.16-.53,1,1,0,0,0-.2-.63h.76a1,1,0,0,1,.2.63,1,1,0,0,1-.16.53Z"/><path id="path3275" class="cls-9" d="M307.93,246.62V247a1,1,0,0,0,.72.89l.82.2s0,5.37,0,5.58c0,2.95.71,3.77,3.32,3.77a4.18,4.18,0,0,0,2.46-.56v-1.08c-1.14-.09-1.78-.54-1.78-1.31v-7.82h-5.54m4.95,9.65a1.28,1.28,0,0,1-.79-.63,2,2,0,0,1-.26-1v-5.93h.74v5.93a1.24,1.24,0,0,0,.16.64.55.55,0,0,0,.15.18v.83Zm-1.68-11.35a1.8,1.8,0,0,0,2-1.6,1.69,1.69,0,0,0-1.76-1.67,1.85,1.85,0,0,0-2,1.67A1.69,1.69,0,0,0,311.2,244.92Zm.48-1.1a.81.81,0,0,0,.18-.51,1.06,1.06,0,0,0-.21-.63h.75a1,1,0,0,1,.21.63.94.94,0,0,1-.16.51Z"/><path id="path3277" class="cls-9" d="M327.55,254.86a1,1,0,0,1,0-.35V241.79c0-1.32-.31-1.93-2-1.93h-3.42v.62a.75.75,0,0,0,.57.75,1,1,0,0,1,.82,1v4.43l-.17-.06a4.89,4.89,0,0,0-1.6-.32c-3.36,0-5.8,2.25-5.8,5.36,0,3.42,1.9,5.81,4.63,5.81a7.25,7.25,0,0,0,3.64-.85l.08,0,.06.05a4.79,4.79,0,0,0,2.55.88,7.66,7.66,0,0,0,2.75-.54v-1.09c-1.15,0-1.86-.38-2-1m-4.05-6.48v7l-.07,0a3.21,3.21,0,0,1-1.76.43c-.94,0-1.48-1.57-1.48-4.19s.59-3.85,1.69-3.85a2.53,2.53,0,0,1,1.57.49l.05,0Zm3.4,7.89a1.23,1.23,0,0,1-.78-.63,2.14,2.14,0,0,1-.26-1V241.3h.74v13.32a1.24,1.24,0,0,0,.16.64.7.7,0,0,0,.14.18Zm-7.73-.83a8.84,8.84,0,0,1-.66-3.8,10,10,0,0,1,.42-2.95h.74a10.39,10.39,0,0,0-.39,2.95,9.26,9.26,0,0,0,.63,3.8Z"/><path id="path3279" class="cls-9" d="M339.49,231.92h-6.22v.15c.05,2.3.74,3.66,2,3.66a1.64,1.64,0,0,0,1.24-.56c.64-.64.28-1.28,1.51-1.28h.79c.88,0,1,.58,1,.85v.58a1.44,1.44,0,0,1-.81,1.06,9.14,9.14,0,0,1-3.92.81c-3.95,0-6.31-2.16-6.31-5.78,0-4,3.36-5.39,6.24-5.39,3.54,0,5.51,1.75,5.51,4.94a.94.94,0,0,1-1.08,1m-2.94-1.18c0-2.16-.47-3.31-1.53-3.31s-1.66,1.18-1.75,3.31Zm-4.32,4.31H333a8.44,8.44,0,0,1-.68-3.64,10.2,10.2,0,0,1,.46-3.11H332a10.31,10.31,0,0,0-.47,3.11,8.32,8.32,0,0,0,.69,3.64m7.41-4.31a5.09,5.09,0,0,0-.62-2.44h-.74a5.33,5.33,0,0,1,.6,2.44Z"/><path id="path3281" class="cls-9" d="M321.84,233.22c0,3,.94,3.76,3.56,3.76a4.29,4.29,0,0,0,2.45-.55v-1.07c-1.15-.09-1.77-.54-1.77-1.31v-6h2.06v-1.85h-2.06v-4.68h-.78a.83.83,0,0,0-.75.61,5,5,0,0,1-2.71,2.35v1.72h-1.57v1.85h1.57v5.14m3.48,1.65a.73.73,0,0,0,.16.18v.82a1.32,1.32,0,0,1-.81-.62,2.09,2.09,0,0,1-.25-1V228.3h.74v5.92a1.38,1.38,0,0,0,.16.65Zm-.16-11.59v2.94h-.75v-2A3.36,3.36,0,0,0,325.16,223.28Z"/><path id="path3283" class="cls-9" d="M306.14,254.44v-4.75c0-2.32-2.28-3.36-4.56-3.36a8.85,8.85,0,0,0-4.87,1.44,1.32,1.32,0,0,0-.44.74c0,.18,0,.36,0,.55v.14a.82.82,0,0,0,.81.82h1.13a.91.91,0,0,0,1-.57,2.81,2.81,0,0,1,.55-1.11,2.17,2.17,0,0,1,1.61-.6c.22,0,.57.11.57.8v2.3h-.13c-3.11.33-6.44.89-6.44,3.61,0,1.89,1.47,3,4,3a8.54,8.54,0,0,0,3.24-.8l.06,0,.06,0a5,5,0,0,0,2.38.76,8.14,8.14,0,0,0,1.45-.13,3.26,3.26,0,0,0,1.46-.49v-1.08c-1.16-.08-1.79-.54-1.79-1.31m-4.25-2.31v3.45l-.1,0a4.38,4.38,0,0,1-1.21.22c-.66,0-1-.68-1-2s1-1.66,2.17-1.8l.15,0v.16Zm2.87,3.51a1.94,1.94,0,0,1-.27-1v-4.27a1.3,1.3,0,0,0-.16-.65.71.71,0,0,0-.15-.18v-.82a1.27,1.27,0,0,1,.8.63,1.94,1.94,0,0,1,.27,1v4.27a1.34,1.34,0,0,0,.15.64.74.74,0,0,0,.16.18v.83A1.27,1.27,0,0,1,304.76,255.64Zm-6.52,0a4.56,4.56,0,0,1-.31-1.84,3.11,3.11,0,0,1,.13-.93h.74a3.44,3.44,0,0,0-.14.93,4.54,4.54,0,0,0,.32,1.84Z"/><path id="path3285" class="cls-9" d="M339.77,254.2v-.57l.2,0a.82.82,0,0,0,.28-.14,1,1,0,0,0,.18-.33,2.53,2.53,0,0,0,.06-.62,2.34,2.34,0,0,0-.06-.61.81.81,0,0,0-.2-.33.57.57,0,0,0-.32-.16l-.14,0v-.59a2.71,2.71,0,0,1,.49.06,1.26,1.26,0,0,1,.51.32,1.43,1.43,0,0,1,.32.55,2.39,2.39,0,0,1,.12.81,2.18,2.18,0,0,1-.11.72,1.48,1.48,0,0,1-.36.6,1.24,1.24,0,0,1-.48.28,1.77,1.77,0,0,1-.49.06m-7-2a1.83,1.83,0,0,1,0,.54Zm7-1.44v.59l-.43,0H339v2.26h.74v.57h-1.42V250.8h1.42Zm-7,3.47h.46l.86-3.53h-.49l-.83,3.44Zm1.65-.06V250.8h1l.62,2.33.61-2.33h1v3.41H337v-2.69l-.67,2.69h-.67l-.67-2.69v2.69ZM331,250.73a1.86,1.86,0,0,1,.88.23,1.65,1.65,0,0,1,.66.65,1.76,1.76,0,0,1,.22.63v.54a1.65,1.65,0,0,1-.22.62,1.61,1.61,0,0,1-.66.66,1.83,1.83,0,0,1-.88.23v-.35a1.47,1.47,0,0,0,.71-.18,1.47,1.47,0,0,0,.72-1.25,1.44,1.44,0,0,0-.19-.72,1.31,1.31,0,0,0-.54-.53,1.46,1.46,0,0,0-.7-.18v-.35Zm1.76,3.45,0,.09h0ZM331,252.83a2.82,2.82,0,0,1,.21.33l.15.3h.48l-.22-.38a1.86,1.86,0,0,1-.14-.23,1,1,0,0,0-.13-.14.57.57,0,0,0-.13-.08.59.59,0,0,0,.37-.18.47.47,0,0,0,.13-.34.53.53,0,0,0-.07-.28.42.42,0,0,0-.17-.18.75.75,0,0,0-.31-.07H331v.31l.14,0a.25.25,0,0,1,.13.09.22.22,0,0,1,0,.28.21.21,0,0,1-.13.09l-.14,0v.45Zm0-2.1h0v.35a1.5,1.5,0,0,0-.71.18,1.35,1.35,0,0,0-.53.53,1.44,1.44,0,0,0-.19.72,1.38,1.38,0,0,0,.19.71,1.31,1.31,0,0,0,.53.54,1.47,1.47,0,0,0,.71.18v.35h0a1.84,1.84,0,0,1-.89-.23,1.74,1.74,0,0,1-.66-.66,1.8,1.8,0,0,1-.24-.89,1.84,1.84,0,0,1,.24-.9,1.68,1.68,0,0,1,.67-.65,1.73,1.73,0,0,1,.88-.23Zm0,.84h-.81v1.89h.38v-.78h.1a.4.4,0,0,1,.27.09.17.17,0,0,1,.06.06v-.45h-.43v-.52H331v-.31Z"/></g><text class="cls-10" transform="translate(253.5 287.67)">100% ORANGE<tspan x="29.43" y="17.07">JUICE</tspan></text></g></g></g></svg>