<svg xmlns="http://www.w3.org/2000/svg" viewBox="0 0 234.75 534.8"><defs><style>.cls-1{fill:none;stroke:#999;stroke-linecap:round;stroke-linejoin:round;stroke-width:6px;}.cls-2{fill:#fff;}</style></defs><title>Asset 1</title><g id="Layer_2" data-name="Layer 2"><g id="Spoon"><path class="cls-1" d="M91.19,19.28s25-15.41,25.42-14.68c0,0-24.71,23.92-24.6,24.11.69,1.2,41.76-24.11,41.76-24.11S92.65,41,93.16,41.87l62.38-36S93.67,48.75,93.77,48.93c.83,1.43,61.16-35.31,61.16-35.31.33.57-60.84,46.62-60.05,48l59-34S95,67,95.41,67.74l57.9-33.42L96.8,83.65S151,50.19,151.93,51.82c.4.69-54.05,47.64-53.7,48.25,0,0,52.21-30.32,52.29-30.19.57,1-52.32,34.92-51.8,35.83C99.39,106.87,150,76.08,150,76.08s-50.36,44.34-50,45c.25.44,47.72-29.65,48.63-28.08.06.1-47.5,41-47.5,41l46.38-26.78-45.74,34.14s44.79-26.61,45.11-26.05c0,0-45.09,32.33-44.47,33.4.78,1.35,43.57-25.76,43.83-25.31,0,0-43,39.77-42.49,40.65,0,0,41.16-23.8,41.17-23.77s-41,31.29-40.43,32.24c.31.54,39.7-22.92,39.7-22.92.27.48-39,35.39-38.54,36.25,0,0,36.9-22.44,37.39-21.58.09.15-36.8,34.39-36.59,34.74.64,1.11,35.21-20.94,35.47-20.48,1.39,2.41-89.82,67.93-89.82,67.93s87.34-53.1,88.5-51.09c.41.7-106.6,72.44-105.61,74.17,0,0,104.49-61.21,104.87-60.55,0,0-115.33,75.58-114,77.83l117.69-67.95C145,221.38,17.05,307.1,17.64,308.12c0,0,137.29-82.53,138.71-80.08L13.55,323l153.89-88.84C168.25,235.58,11.82,331,11.82,331,13.9,334.65,173,238,173,238S7.83,347.17,9.1,349.36c0,0,175.09-102.8,175.84-101.52L8.15,364.63C10.66,369,194.06,257.29,194.06,257.29S6.5,371.24,8.05,373.92c1.69,2.94,191.2-110.39,191.2-110.39L8.59,386.64c2.82,4.89,197.31-113.92,197.31-113.92S9.36,398.27,9.84,399.09c2.53,4.38,199.23-121.66,202.1-116.68,0,0-201.14,123.55-201.11,123.61,2.81,4.86,202.26-121.26,204.2-117.9L13.57,419.64s206.94-120,207.15-119.6c1.19,2.07-204.63,131.3-203.42,133.4,1.51,2.61,208.53-120.39,208.53-120.39.11.2-206.26,127.08-206.26,127.08C21,442.53,225.13,314.93,228,319.82c1,1.77-205.25,129.37-204.07,131.41,1.3,2.25,204.94-123.69,207.26-119.66,0,0-207.32,120.72-204.86,125C28.52,460.43,231,335,232.46,337.51c.9,1.55-204.24,123.24-203.94,123.75,0,0,202.94-121.9,205-118.35C234.3,344.29,34,471.25,34,471.25,34.64,472.41,234.74,354,235.32,355c0,0-198.72,120.43-198.42,121,.41.71,198.36-116,199-114.91,0,0-190.78,126.45-190.38,127.14C48.33,493,236.79,377.76,236.79,377.76c.46.8-186.95,114.05-184.33,118.59C53.29,497.78,236.62,390,236.62,390c1.38,2.39-180,110.76-180,110.76,2.74,4.75,179.51-103.64,179.51-103.64.61,1.05-173.49,109.33-173.49,109.33s171.58-101.25,172.53-99.61c.3.53-167.44,103.86-167.44,103.86l166.36-96S72.77,512.76,74.42,515.62c0,0,156.81-93,157.87-91.15,0,0-143,99.59-142.94,99.74,1.29,2.22,137.37-79.56,137.48-79.38,0,0-126.21,82.64-125.36,84.11l119.74-69.13c.34.6-104.45,71.49-103.7,72.79,0,0,94.81-54.76,94.82-54.74.84,1.45-76,55.45-76,55.45,1.07,1.87,62.92-37.93,63.61-36.73.4.69-36.86,31.05-36.82,31.12.33.58,14.87-9,15-8.68" transform="translate(-5.04 -1.58)"/><path class="cls-2" d="M32.68,376c0-1.19-5.63-2.57-5.61-3.76s22.42-1.79,22.47-3-.43-2.2-.37-3.39-11.6-3-11.52-4.2,11-1.43,11.14-2.62-14.62-3.77-14.5-4.95,1.52-2.3,1.67-3.48,10.83-.92,11-2.1S40,345.16,40.23,344s7.7-1,7.91-2.19-2.52-2.8-2.28-4-13.66-5.4-13.4-6.56,20.38,2.3,20.66,1.15-11.64-5.34-11.33-6.49,13.83,1.44,14.16.3-21.62-9-21.27-10.08,20.16,3.93,20.53,2.8,1.83-1.68,2.23-2.8-3.34-3.59-2.91-4.7,2.65-1.36,3.1-2.46-4.75-4.49-4.27-5.58,2.86-1.26,3.37-2.34-.73-2.92-.2-4-5.14-5.37-4.58-6.42,13.16,4.52,13.74,3.48-7.88-7.25-7.27-8.27,7,1.58,7.65.58,2.84-.78,3.51-1.76-5.37-6.62-4.67-7.58,11.78,6.11,12.51,5.17-10.07-11-9.31-11.94-2.22-5.35-1.42-6.23,16.16,11.9,17,11-14.11-17.56-13.25-18.38,4.48.83,5.37,0,.29-3.91,1.22-4.66,9.68,8.41,10.63,7.71S84,250.3,85,249.64s3.55.61,4.57,0,6.15,6.07,7.2,5.52,3.75,3,4.83,2.45-2.43-11.48-1.32-11.91.38-7.21,1.51-7.57,2.58-1.93,3.74-2.23,4,4.74,5.2,4.51,1.89-6.7,3.08-6.85,3.21,1.33,4.41,1.25,3,8.2,4.21,8.2,2.88-5.86,4.06-5.79,2.91,0,4.09.1,2.5,2.25,3.68,2.47.95,7.35,2.11,7.65,3.4-3,4.54-2.59,4.95-5.68,6.06-5.24,2.37,1.88,3.47,2.38-4,13.77-2.94,14.32S157,244.54,158,245.15s-6.9,15.56-5.9,16.23,4-2,5-1.32,9.81-8.6,10.74-7.84,2.51,1.37,3.41,2.16S159,271.16,159.9,272s10.66-7.57,11.49-6.71,3.29.35,4.1,1.25-6.89,9.06-6.11,10,13-7.43,13.76-6.48-13.52,13.13-12.81,14.1,13.07-6.45,13.75-5.46,6-.89,6.65.12-11.65,10.09-11,11.12,15.79-6.37,16.39-5.33-3,4.61-2.44,5.67.84,2.41,1.38,3.49-10.89,7.85-10.38,8.94,14.07-3.76,14.55-2.65-3.92,4.34-3.47,5.46-11.43,7-11,8.08,22.61-5.84,23-4.71.53,2.6.91,3.74-10.84,6.1-10.48,7.25,6,.73,6.3,1.89-8.15,4.72-7.84,5.88,5,1.13,5.28,2.3,4.28,1.48,4.54,2.65-14.33,5.41-14.09,6.58,16.23-.76,16.45.42-4.6,3.25-4.41,4.43,1.13,2.24,1.3,3.43-5.14,3.05-5,4.24-4.3,2.76-4.17,3.95-1.62,2.36-1.51,3.55,18.53.88,18.61,2.08-.55,2.53-.48,3.73.9,2.46.94,3.66,2.94,2.45,3,3.65-5.79,2.55-5.79,3.75-9.77,2.29-9.79,3.48,8.77,2.6,8.73,3.79,1.49,2.52,1.43,3.71,1.77,2.6,1.68,3.79-11.51,1.5-11.61,2.69,13.09,3.71,13,4.89-.95,2.45-1.1,3.63-3.32,2.08-3.49,3.26-4.91,1.72-5.1,2.89,5.49,3.44,5.28,4.61-16-.68-16.22.49,2.41,2.79,2.15,4,6.66,3.94,6.38,5.1,7.54,4.48,7.23,5.63-17.81-2.43-18.14-1.29-1.9,1.73-2.25,2.86,20.67,9.18,20.29,10.31-8.66-.27-9.06.85-7.1-.07-7.52,1.05-9.65-1.44-10.1-.34,4.33,4.19,3.85,5.28,13.86,8.92,13.35,10-18.77-6.39-19.3-5.33,2.25,3.61,1.69,4.66,9.55,7.93,9,9,.47,3.26-.14,4.28-16.29-7.33-16.93-6.33.74,3,.07,4,11.79,11.27,11.09,12.23-10.8-5.05-11.53-4.11-1.32,1.87-2.08,2.78-3,.37-3.8,1.25,8.77,11.56,7.95,12.41-6.87-3.22-7.73-2.4-1.52,2-2.42,2.8,1.31,5.58.39,6.33.23,4.92-.73,5.62-14-15.75-15-15.09,3.32,9.34,2.3,9.94-.37,4.45-1.42,5,.18,6.62-.9,7.11-5.95-7.12-7.05-6.69-3.55-3-4.68-2.66-3.87-6.23-5-5.93-1,4.18-2.14,4.41.11,16.4-1.07,16.56-3.95-14.89-5.15-14.81-2-4.3-3.22-4.3-1.62-2.2-2.8-2.28-2.68,8.17-3.86,8-3.26,5.57-4.43,5.34-1.83-3-3-3.3-.46-6.21-1.6-6.58-4.84,6.87-6,6.43.44-6.93-.65-7.43-4.53,4.07-5.59,3.51-3.1.47-4.13-.14,2.18-7.83,1.18-8.5-7.45,6.53-8.42,5.82,6.61-12.3,5.67-13.05-7.87,5.94-8.77,5.14,6.14-9.88,5.27-10.71-13.59,10.45-14.43,9.58,6-8.9,5.23-9.8S64.79,486.07,64,485.15s6.52-8.46,5.78-9.41,4.42-6.08,3.71-7.05.43-2.82-.25-3.81-14.34,6.76-15,5.75-.82-2.43-1.44-3.46,12.41-9.85,11.82-10.89-6.4,1.06-7,0-2.2-1.4-2.73-2.48.46-2.71,0-3.8-2.17-1.49-2.65-2.59-15.74,4-16.2,2.89,3.05-4,2.62-5.11,12.93-7.32,12.53-8.45-17.95,3.65-18.33,2.51S51,432.14,50.69,431s4.73-3.72,4.4-4.88-6.12-.61-6.43-1.77-6.41-.78-6.7-2-3.91-1.58-4.17-2.75-.91-2.33-1.15-3.51-1.71-2.2-1.92-3.38,5.3-3.39,5.1-4.58-2.68-2-2.85-3.21,5.13-3.09,5-4.28-14.52-.79-14.64-2,19.38-4.31,19.27-5.51-1.45-2.14-1.53-3.33-10.3-1.72-10.36-2.92-7.48-2.18-7.52-3.37,12.38-2.79,12.36-4S32.68,377.24,32.68,376Z" transform="translate(-5.04 -1.58)"/></g></g></svg>