<svg xmlns="http://www.w3.org/2000/svg" viewBox="0 0 600 600"><defs><style>.cls-1{fill:#7ddad6;}.cls-2{fill:#c1272d;}.cls-3{fill:#f2f2f2;}.cls-4{fill:#fff;}</style></defs><title>Asset 17</title><g id="Layer_2" data-name="Layer 2"><g id="vanilla"><rect id="bg" class="cls-1" width="600" height="600"/><g id="icon"><path class="cls-2" d="M379.2,500.74H222.8c-5.7,0-10.42-4.17-10.78-9.52L186.29,113.54c-.4-5.86,4.54-10.81,10.78-10.81H404.82c6.24,0,11.18,5,10.79,10.81L390,491.22C389.62,496.57,384.9,500.74,379.2,500.74Z"/><rect class="cls-3" x="175.72" y="99.26" width="250.46" height="15.02" rx="7.51"/><path class="cls-4" d="M230.22,257.75l0-2.64c8.38-5.59,21.15-13.48,22-14,1-.6.81-1.22.49-1.63s-1.63-1.76-2-2.23-1.08-1.14-2.09-.56c-14,8-31.18,20-43.68,29.65-.13,1.09,1.94,2.48,3.18,3.06.78.37,1.15.58,1.65.21,2.08-1.45,11-7.9,13.49-9.46.06,9.94,1.83,27.27,3.39,38.88.21,1.31.64,1.62,1.59,1.82s2.29.54,4.39.82,2.6-.9,2.41-2.19C233.35,289.36,230.69,267,230.22,257.75Z"/><path class="cls-4" d="M241.09,264.23a4.83,4.83,0,1,0-4.79-4.48A4.63,4.63,0,0,0,241.09,264.23Z"/><path class="cls-4" d="M410.88,175.41c-1.35,4.36-4.6,14-5.22,16.71-.37-3.15-.49-8.7-.5-10.33-.07-1.9-.75-2-1.52-2.3s-3-1.13-3.76-1.21-1.11,0-1.47,1.35c-1.62,5.73-3.45,9.13-5.19,11.25-3.25-8.14-21.56-8.57-16.44,17.29-1.54,7.82-5.36,13.09-6.48,6.68-.6-3.67-1.75-15-2.37-23.59,6.22-3.94,13.8-8.59,18.43-11.08.64-.3.94-.58,1-.91a.74.74,0,0,0-.3-.66l0,0a13,13,0,0,0-1.59-1.69l0,0a1.61,1.61,0,0,0-2.08-.13c-1.87,1.07-9.05,5.77-15.76,10.27-.1-1.85-.16-3.43-.15-4.56a2.3,2.3,0,0,0-1.46-2,19.1,19.1,0,0,0-4.4-1.26c-.84,0-1.21.39-1.09,1.85.21,2.13.6,5.84,1,10.13-1.78,1.23-3.35,2.32-4.53,3.17-1,.66-1,2.09-1,2.78v.17h0a.94.94,0,0,0,.53.82,1,1,0,0,0,1-.21c.35-.28,2-1.36,4.31-2.87.57,6.56,1.07,13.76,1,18.64-.65,12.22-5.54,13.49-6.53,8s-.85-14.31-.82-15.86c0-1.23-.46-2.4-2.23-1.38-1.53.88-3.71.29-4.92-2.89-.7-1.75-2.24-1.79-2.19-.08.2,4.79-2,13.21-4.07,15.51-1.16-2.91-5.57-5.08-12.95-.85-1.71,1-5.24,3.08-9.5,5.67-.82-9.87-1.35-18.46-1.31-19.18a1.46,1.46,0,0,0-.95-1.3,23.66,23.66,0,0,0-4.05-.84,1.36,1.36,0,0,0-1.47,1.35c.19,7.57.92,15.76,1.87,23.59-3.81,2.37-7.79,4.87-11.34,7.17-1-9.38-2-18.17-2.33-21.23,0-1-.13-1.66-1.14-2a39.83,39.83,0,0,0-4.82-.92c-.92-.18-1.68.45-1.53,1.6.34,3.86,1.69,16.17,2.92,27.17-.64.44-1.22.87-1.74,1.25-2.28,1.72-.75,3.5,1.16,2.2.3-.19.6-.37.91-.53,1,8.75,1.82,16,1.9,16.48a2.81,2.81,0,0,0,1.94,2.66,30.31,30.31,0,0,0,4.82,1.12c.76.07,1.18-.27,1.07-1.53-.61-4-1.57-12.17-2.53-20.66,5.57,0,11.07,3.32,14.61,10.57.36.81.66,1.86,1.46,2a19,19,0,0,0,2.76.36c1.26-.12,1.21-1.1,1.07-2-1.13-5.17-2.2-15.07-3-24.42,3.7-2.34,6.81-4.21,7.81-4.66-6.71,14,2.21,26.3,12,20.71,6.29-3.61,6.53-15.45,3.52-21.28,2.24-3.27,3.32-7.11,4.36-11.12a4.78,4.78,0,0,0,1.94,1.44c-2.5,18.79,2.87,22.46,8.56,19.19s6.08-8.79,6.47-11.67c1.94,8.18,10.93,5.16,13.55-6.65,8.13,9,19.84-1.88,15.73-17.79a31.31,31.31,0,0,0,5.25-8.13c-.43,4.95.43,13.94.57,14.88s.46,1.17,1.35,1.47a31,31,0,0,0,3.74.82c.72.2,1.37-.27,1.61-1.64,1.51-7.53,3.56-14.61,4.47-17.75Zm-106,59.4c2.07-1.51,5.62-3.89,9.33-6.31.49,3.85,1,7.58,1.57,11.09C312.63,236.79,307.75,234.17,304.86,234.81Zm33.83.61c-4.29,2.47-9.34-3.83-5.08-13.32a5,5,0,0,0,7.42.14C342.44,225.16,343,233,338.69,235.42Zm44.6-40.48c2.38,2.64,5.11,2.31,7.67.61C395,213.63,378.38,211.62,383.29,194.94Z"/><path class="cls-4" d="M284.48,251c0-.86.06-1-.64-1.33s-2.61-.53-3.72-.77a1.81,1.81,0,0,0-2.26,1.28,140.17,140.17,0,0,0-3.66,18.33c-.44-1.71-2.25-9.71-2.1-11.76a1.25,1.25,0,0,0-1-1.5c-.48-.08-3.84-.71-4.39-.74s-1-.2-1.42.82-3.65,11.73-4.25,20.38c-.37-2-1.41-12.91-1.43-13.89s-.38-1.33-.78-1.42-3.73-.33-4.42-.32-1.25.29-1.26.94l-.57,12.23c-1.15,10.1-5.24,16.93-6,10.23l-1.4-13.33a1.84,1.84,0,0,0-1.5-2.17c-1-.31-2.84-.85-4.16-1.18-.67-.13-1.47.08-1.47,1.34a152.4,152.4,0,0,0,2.41,22.56c.18,1.12.74,1.4,2,1.42,2.92,0,4.11.32,5.5-.91,6.31-5.57,6.83-18,6.83-18,0,1.24.5,6.6.92,10.29,0,1.1.59,1.27,1.39,1.23s3.06-.05,3.9-.16,1.25-.55,1.3-1.28a117.87,117.87,0,0,1,4.39-20.71c-.29,2.18,1.74,11.31,1.81,12.23s.16,1.8,1.17,1.89,3.39-.15,4.8-.21a1.09,1.09,0,0,0,1.15-.91c.21-3,.86-13.09,3.2-18.72-.32,2.28.54,6,1.44,10,1.46,6.78,10.78,4.47,10-2.19C286.32,268.65,284,261.31,284.48,251Z"/></g></g></g></svg>