<svg xmlns="http://www.w3.org/2000/svg" viewBox="0 0 600 600"><defs><style>.cls-1{fill:#eea499;}.cls-2{fill:#99e3ee;}.cls-3{fill:#66d5e5;}.cls-4{fill:#00b9d4;}.cls-5{font-size:35.16px;fill:#fff;font-family:TwCenMT-CondensedBold, Tw Cen MT Condensed;font-weight:700;}.cls-6{letter-spacing:-0.03em;}.cls-7{letter-spacing:-0.05em;}</style></defs><title>Asset 9</title><g id="Layer_2" data-name="Layer 2"><g id="Bottled_water" data-name="Bottled water"><g id="circle"><circle class="cls-1" cx="300" cy="300" r="300"/><g id="Bottle"><path class="cls-2" d="M234.91,335.79H367a0,0,0,0,1,0,0V471.92a29.3,29.3,0,0,1-29.3,29.3H264.21a29.3,29.3,0,0,1-29.3-29.3V335.79A0,0,0,0,1,234.91,335.79Z"/><path class="cls-2" d="M234.91,149.47H367a0,0,0,0,1,0,0v34a65.43,65.43,0,0,1-65.43,65.43h-1.21a65.43,65.43,0,0,1-65.43-65.43v-34A0,0,0,0,1,234.91,149.47Z" transform="translate(601.89 398.36) rotate(-180)"/><rect class="cls-2" x="271.65" y="123.49" width="58.6" height="37.83"/><rect class="cls-2" x="269.13" y="134.79" width="63.62" height="10.43" rx="5.21"/><rect class="cls-3" x="234.91" y="361.97" width="132.06" height="5.39"/><rect class="cls-3" x="234.91" y="393.53" width="132.06" height="5.39"/><rect class="cls-3" x="234.91" y="425.09" width="132.06" height="5.39"/></g><g id="Cap"><path class="cls-4" d="M276.7,102.18h49.62a7,7,0,0,1,7,7v24.26a0,0,0,0,1,0,0H269.72a0,0,0,0,1,0,0V109.16A7,7,0,0,1,276.7,102.18Z"/><rect class="cls-3" x="310.48" y="108.93" width="1.29" height="21.64"/><rect class="cls-3" x="317.23" y="108.93" width="1.29" height="21.64"/><rect class="cls-3" x="323.99" y="108.93" width="1.29" height="21.64"/><rect class="cls-3" x="303.72" y="108.93" width="1.29" height="21.64"/><rect class="cls-3" x="296.97" y="108.93" width="1.29" height="21.64"/><rect class="cls-3" x="290.22" y="108.93" width="1.29" height="21.64"/><rect class="cls-3" x="283.46" y="108.93" width="1.29" height="21.64"/><rect class="cls-3" x="276.71" y="108.93" width="1.29" height="21.64"/></g><g id="Label"><rect class="cls-4" x="234.91" y="248.89" width="132.06" height="86.91"/><text class="cls-5" transform="translate(259.55 292.82)"><tspan class="cls-6">W</tspan><tspan class="cls-7" x="21.89" y="0">A</tspan><tspan x="37.72" y="0">TER</tspan></text></g></g></g></g></svg>