<svg xmlns="http://www.w3.org/2000/svg" viewBox="0 0 600 600"><defs><style>.cls-1{fill:#d6c3df;}.cls-2{fill:#99e3ee;}.cls-3{fill:#66d5e5;}.cls-4{fill:#00b9d4;}</style></defs><title>Asset 13</title><g id="Layer_2" data-name="Layer 2"><g id="water"><rect id="bg" class="cls-1" width="600" height="600"/><g id="icon"><g id="Bottle"><path class="cls-2" d="M235.3,336.26H367.37a0,0,0,0,1,0,0V472.38a29.3,29.3,0,0,1-29.3,29.3H264.6a29.3,29.3,0,0,1-29.3-29.3V336.26A0,0,0,0,1,235.3,336.26Z"/><path class="cls-2" d="M235.3,149.93H367.37a0,0,0,0,1,0,0v34a65.43,65.43,0,0,1-65.43,65.43h-1.21a65.43,65.43,0,0,1-65.43-65.43v-34a0,0,0,0,1,0,0Z" transform="translate(602.67 399.28) rotate(-180)"/><rect class="cls-2" x="272.04" y="123.95" width="58.6" height="37.83"/><rect class="cls-2" x="269.52" y="135.26" width="63.62" height="10.43" rx="5.21"/><rect class="cls-3" x="235.3" y="362.43" width="132.06" height="5.39"/><rect class="cls-3" x="235.3" y="393.99" width="132.06" height="5.39"/><rect class="cls-3" x="235.3" y="425.55" width="132.06" height="5.39"/></g><g id="Cap"><path class="cls-4" d="M277.08,102.65H326.7a7,7,0,0,1,7,7v24.26a0,0,0,0,1,0,0H270.11a0,0,0,0,1,0,0V109.62A7,7,0,0,1,277.08,102.65Z"/><rect class="cls-3" x="310.87" y="109.39" width="1.29" height="21.64"/><rect class="cls-3" x="317.62" y="109.39" width="1.29" height="21.64"/><rect class="cls-3" x="324.37" y="109.39" width="1.29" height="21.64"/><rect class="cls-3" x="304.11" y="109.39" width="1.29" height="21.64"/><rect class="cls-3" x="297.36" y="109.39" width="1.29" height="21.64"/><rect class="cls-3" x="290.6" y="109.39" width="1.29" height="21.64"/><rect class="cls-3" x="283.85" y="109.39" width="1.29" height="21.64"/><rect class="cls-3" x="277.1" y="109.39" width="1.29" height="21.64"/></g><g id="Label"><rect class="cls-4" x="235.3" y="249.35" width="132.06" height="86.91"/></g></g></g></g></svg>